#!OML:ASF E:\emotionWalksFemale\Project 1\Capture day 1\Session 1\Female1.ASF
:FULLY-SPECIFIED
:DEGREES
1256
root 7.40018 15.4948 -38.1422 372.42 14.8175 5.01172
lowerback 15.534 5.34361 3.12804
upperback 0.111932 7.69256 0.604381
thorax -8.22752 3.5952 -2.79696
lowerneck 3.07341 -10.7886 -10.4921
upperneck -0.85324 -14.6938 9.46679
head 0.730368 -7.40728 4.32259
rclavicle -5.96354e-015 2.22639e-014
rhumerus 13.1051 23.4656 -89.7041
rradius 38.9468
rwrist 17.8362
rhand -14.5481 -46.6489
rfingers 7.12502
rthumb 11.6006 283.692
lclavicle -5.96354e-015 2.22639e-014
lhumerus -62.6513 16.4813 44.0416
lradius 33.7875
lwrist -12.8162
lhand 7.71409 -21.7768
lfingers 7.12502
lthumb 32.9551 5.23287
rfemur -16.4476 4.90373 21.8507
rtibia 32.7611
rfoot -33.3954 -44.3168
rtoes 29.1941
lfemur -33.744 -22.1647 -11.7896
ltibia 38.3916
lfoot -8.92135 0.855419
ltoes -22.1113
1257
root 7.44013 15.5121 -38.1468 372.799 14.9399 5.21033
lowerback 15.2124 5.24476 2.90452
upperback 0.492086 7.51938 0.887838
thorax -7.71413 3.54821 -2.28119
lowerneck 2.7473 -10.7962 -11.0016
upperneck -1.29763 -14.6739 9.7483
head 0.707601 -7.39114 4.47133
rclavicle 6.16232e-014 -3.97569e-014
rhumerus 12.9711 23.6135 -89.6129
rradius 38.4926
rwrist 18.2312
rhand -13.8435 -46.773
rfingers 7.12502
rthumb 12.28 283.608
lclavicle 6.16232e-014 -3.97569e-014
lhumerus -61.4705 17.1313 46.5054
lradius 33.761
lwrist -12.5233
lhand 7.16249 -22.2669
lfingers 7.12502
lthumb 32.4303 4.85178
rfemur -16.7631 4.98788 21.4692
rtibia 32.7469
rfoot -34.4785 -44.146
rtoes 30.8355
lfemur -33.7138 -22.0588 -11.9692
ltibia 37.5981
lfoot -8.55325 0.511918
ltoes -22.6884
1258
root 7.47905 15.5226 -38.1518 373.256 14.9891 5.45166
lowerback 15.3199 5.29169 2.75124
upperback 0.506817 7.55598 0.869714
thorax -7.77352 3.56867 -2.2347
lowerneck 2.71058 -10.9021 -10.8928
upperneck -1.65614 -14.7923 9.95745
head 0.628497 -7.45172 4.52104
rclavicle -5.76476e-014 2.22639e-014
rhumerus 12.2696 22.6703 -90.093
rradius 37.686
rwrist 18.619
rhand -13.5081 -47.4205
rfingers 7.12502
rthumb 12.6034 282.98
lclavicle -5.76476e-014 2.22639e-014
lhumerus -59.9755 16.814 49.0079
lradius 33.6803
lwrist -12.6488
lhand 6.07329 -22.5189
lfingers 7.12502
lthumb 31.3932 4.80692
rfemur -17.2186 5.11028 21.024
rtibia 32.8207
rfoot -35.4266 -44.0239
rtoes 32.2151
lfemur -33.663 -22.1223 -12.0941
ltibia 36.8109
lfoot -8.49756 0.0552866
ltoes -13.3372
1259
root 7.51808 15.5468 -38.1511 373.791 14.9465 5.72947
lowerback 15.138 5.30072 2.44365
upperback 0.588564 7.5106 0.927471
thorax -7.63348 3.56454 -1.97279
lowerneck 2.89056 -10.9239 -10.9714
upperneck -2.23508 -14.8129 10.2189
head 0.45763 -7.46877 4.63879
rclavicle 9.78021e-014 -1.11319e-014
rhumerus 11.5719 22.0512 -90.4269
rradius 36.967
rwrist 18.88
rhand -14.9897 -47.7342
rfingers 7.12502
rthumb 11.1747 282.583
lclavicle 9.78021e-014 -1.11319e-014
lhumerus -58.5342 16.288 51.8893
lradius 33.7346
lwrist -12.6365
lhand 4.6184 -22.2287
lfingers 7.12502
lthumb 30.0059 5.35752
rfemur -17.7525 5.1963 20.5105
rtibia 32.9449
rfoot -35.8579 -43.9007
rtoes 32.8574
lfemur -33.8089 -21.4455 -12.8155
ltibia 36.0455
lfoot -7.95473 0.464444
ltoes -28.3961
1260
root 7.56546 15.5647 -38.1543 374.374 14.8553 5.99263
lowerback 15.348 5.19402 2.59832
upperback 0.428377 7.38669 0.672219
thorax -7.87382 3.48452 -2.33244
lowerneck 2.84932 -10.9794 -10.8563
upperneck -2.4121 -14.8691 10.4683
head 0.429749 -7.49999 4.69558
rclavicle -1.00187e-013 -3.18055e-015
rhumerus 10.5983 21.2682 -91.2308
rradius 36.1946
rwrist 19.3511
rhand -2.64649 -48.3661
rfingers 7.12502
rthumb 23.0532 282.993
lclavicle -1.00187e-013 -3.18055e-015
lhumerus -57.1075 15.1036 54.4789
lradius 33.8681
lwrist -12.5307
lhand 3.62339 -21.7509
lfingers 7.12502
lthumb 29.0561 6.00322
rfemur -18.4116 4.99955 19.9775
rtibia 33.1507
rfoot -35.9045 -43.5936
rtoes 32.9063
lfemur -33.9235 -21.0889 -13.364
ltibia 35.321
lfoot -7.48818 0.787323
ltoes -29.9019
1261
root 7.60906 15.5841 -38.1518 374.789 14.6141 6.08797
lowerback 15.6093 5.23148 2.37558
upperback 0.376264 7.41258 0.750972
thorax -8.11422 3.49748 -2.16432
lowerneck 2.36207 -11.0249 -10.989
upperneck -2.37105 -14.8926 10.5583
head 0.539208 -7.50013 4.70629
rclavicle -6.44062e-014 -1.59028e-014
rhumerus 9.88798 21.6452 -90.9087
rradius 35.4102
rwrist 18.8921
rhand -15.0016 -48.5592
rfingers 7.12502
rthumb 11.1632 281.758
lclavicle -6.44062e-014 -1.59028e-014
lhumerus -55.6274 14.8528 57.0099
lradius 33.7362
lwrist -13.5825
lhand 3.16971 -21.6848
lfingers 7.12502
lthumb 28.6227 6.14318
rfemur -18.941 4.9495 19.6121
rtibia 33.3733
rfoot -35.5061 -43.441
rtoes 32.2722
lfemur -33.8376 -20.744 -13.7491
ltibia 34.6634
lfoot -7.2686 1.20202
ltoes -27.3786
1262
root 7.65572 15.6041 -38.1535 375.189 14.5061 6.19095
lowerback 16.5012 5.33228 2.63255
upperback -0.19063 7.60989 0.419521
thorax -9.14396 3.53032 -2.83239
lowerneck 2.61347 -11.1625 -10.4407
upperneck -2.28531 -15.0833 10.6099
head 0.508399 -7.60535 4.64771
rclavicle 8.82604e-014 1.74931e-014
rhumerus 7.66872 18.3076 -92.6036
rradius 34.5916
rwrist 21.234
rhand -10.0861 -47.4009
rfingers 7.12502
rthumb 15.9007 283.232
lclavicle 8.82604e-014 1.74931e-014
lhumerus -54.3573 12.2734 59.7848
lradius 34.0866
lwrist -13.4874
lhand 3.48747 -22.1081
lfingers 7.12502
lthumb 28.9263 5.66834
rfemur -19.5228 4.75238 19.2416
rtibia 33.6896
rfoot -34.7411 -43.4157
rtoes 31.1479
lfemur -33.9072 -20.5545 -14.1185
ltibia 34.1039
lfoot -7.04179 1.81552
ltoes -24.4522
